<svg id="Capa_1" enable-background="new 0 0 512 512" height="512" viewBox="0 0 512 512" width="512" xmlns="http://www.w3.org/2000/svg"><g><g><g><path d="m416.757 86.627v414.313c0 6.11-4.95 11.061-11.061 11.061h-297.519c-6.11 0-11.061-4.95-11.061-11.061v-330.492l94.882-94.882h213.698c6.111 0 11.061 4.95 11.061 11.061z" fill="#f8f3f1"/><g fill="#efe2dd"><path d="m343.223 86.085c0 16.839-13.646 30.486-30.486 30.486-16.839 0-30.486-13.646-30.486-30.486 0-3.702.663-7.237 1.856-10.519h57.259c1.194 3.282 1.857 6.817 1.857 10.519z"/><path d="m97.114 199.835v-29.382l94.884-94.884v113.205c0 6.109-4.952 11.061-11.061 11.061z"/><path d="m405.695 75.569h-39.555c6.106 0 11.061 4.956 11.061 11.061v414.308c0 6.106-4.956 11.061-11.061 11.061h39.555c6.106 0 11.061-4.956 11.061-11.061v-414.308c.001-6.106-4.955-11.061-11.061-11.061z"/></g></g><g><path d="m97.114 170.453 94.884-94.884v83.823c0 6.109-4.952 11.061-11.061 11.061z" fill="#3ad1e0"/></g></g><g><circle cx="256.935" cy="330.879" fill="#a3e440" r="87.066"/><path d="m344 330.877c0 48.088-38.983 87.07-87.059 87.07-5.845 0-11.558-.575-17.083-1.68 39.9-7.945 69.966-43.16 69.966-85.391s-30.066-77.435-69.966-85.38c5.525-1.105 11.237-1.68 17.083-1.68 48.076.002 87.059 38.974 87.059 87.061z" fill="#99d53b"/><g><path d="m274.238 364.409c-1.747 0-3.503-.599-4.938-1.822-3.415-2.916-8.288-4.597-13.369-4.612-.023 0-.047 0-.07 0-5.055 0-9.908 1.649-13.325 4.531-3.213 2.712-8.015 2.302-10.725-.912s-2.302-8.015.912-10.725c6.21-5.237 14.422-8.117 23.135-8.117h.12c8.758.026 17 2.958 23.206 8.256 3.197 2.729 3.577 7.534.847 10.731-1.506 1.764-3.643 2.67-5.793 2.67z" fill="#82b732"/><g><g><path d="m298.397 329.812c-.015 0-.029 0-.043 0-4.204-.023-7.638-3.45-7.614-7.654.023-4.189 3.382-7.57 7.565-7.57h.043.09c4.204.023 7.593 3.449 7.57 7.653-.023 4.19-3.426 7.571-7.611 7.571z" fill="#82b732"/></g><g fill="#82b732"><path d="m215.563 329.812c-4.204 0-7.656-3.408-7.656-7.611 0-4.204 3.364-7.612 7.567-7.612h.089c4.204 0 7.611 3.408 7.611 7.612 0 4.203-3.408 7.611-7.611 7.611z"/><path d="m298.386 329.812c-4.204 0-7.656-3.408-7.656-7.611 0-4.204 3.363-7.612 7.567-7.612h.089c4.204 0 7.611 3.408 7.611 7.612.001 4.203-3.406 7.611-7.611 7.611z"/></g></g></g></g><g fill="#bcea73"><path d="m256.904 210.6c-.009 0-.016 0-.024 0-4.204-.013-7.601-3.431-7.589-7.634l.074-24.678c.013-4.196 3.418-7.589 7.61-7.589h.024c4.204.013 7.602 3.431 7.589 7.634l-.074 24.678c-.013 4.196-3.418 7.589-7.61 7.589z"/><path d="m220.108 221.118c-2.588 0-5.111-1.32-6.537-3.702l-12.822-21.407c-2.16-3.606-.988-8.28 2.619-10.441 3.606-2.161 8.281-.988 10.441 2.619l12.822 21.407c2.16 3.606.988 8.28-2.619 10.441-1.225.733-2.573 1.083-3.904 1.083z"/><path d="m293.634 221.455c-1.346 0-2.708-.356-3.943-1.106-3.594-2.181-4.738-6.863-2.557-10.456l12.95-21.336c2.181-3.593 6.861-4.738 10.456-2.557 3.594 2.181 4.738 6.863 2.557 10.456l-12.95 21.336c-1.432 2.359-3.941 3.663-6.513 3.663z"/></g><g><g><circle cx="80.746" cy="113.159" fill="#a8e7ef" r="21.916"/><path d="m102.66 113.156c0 12.108-9.815 21.923-21.914 21.923-4.056 0-7.862-1.102-11.117-3.035 8.603-1.983 15.013-9.685 15.013-18.889 0-9.194-6.4-16.906-15.003-18.889 3.255-1.923 7.051-3.025 11.107-3.025 12.099.001 21.914 9.816 21.914 21.915z" fill="#70d9e6"/></g><g><path d="m141.986 35.358c-2.972-2.973-7.792-2.973-10.764 0l-6.408 6.408-6.408-6.408c-2.972-2.972-7.792-2.972-10.764 0-2.973 2.972-2.973 7.792 0 10.764l6.408 6.408-6.408 6.408c-2.973 2.972-2.973 7.792 0 10.764 1.486 1.487 3.434 2.229 5.382 2.229 1.947 0 3.896-.743 5.382-2.229l6.408-6.408 6.408 6.408c1.486 1.486 3.434 2.229 5.382 2.229s3.896-.743 5.382-2.229c2.973-2.972 2.973-7.792 0-10.764l-6.408-6.408 6.408-6.408c2.972-2.972 2.972-7.791 0-10.764z" fill="#64b9fc"/><path d="m266.208 2.23c-2.973-2.973-7.792-2.973-10.765 0l-4.892 4.892-4.892-4.892c-2.972-2.972-7.792-2.972-10.764 0-2.973 2.972-2.973 7.792 0 10.764l4.892 4.892-4.892 4.892c-2.973 2.972-2.973 7.792 0 10.764 1.486 1.487 3.434 2.229 5.382 2.229 1.947 0 3.896-.743 5.382-2.229l4.892-4.892 4.892 4.892c1.487 1.486 3.435 2.229 5.383 2.229s3.896-.743 5.383-2.229c2.972-2.972 2.972-7.792 0-10.764l-4.892-4.892 4.892-4.892c2.971-2.973 2.971-7.792-.001-10.764z" fill="#bcea73"/><path d="m446.049 32.108 4.892-4.892c2.972-2.972 2.972-7.792 0-10.764-2.973-2.972-7.792-2.972-10.765 0l-4.892 4.892-4.892-4.892c-2.973-2.972-7.792-2.972-10.765 0-2.972 2.972-2.972 7.792 0 10.764l4.892 4.892-4.892 4.892c-2.972 2.972-2.972 7.792 0 10.764 1.487 1.486 3.435 2.229 5.383 2.229s3.896-.743 5.383-2.229l4.892-4.892 4.892 4.892c1.487 1.486 3.435 2.229 5.383 2.229 1.947 0 3.896-.743 5.383-2.229 2.972-2.972 2.972-7.792 0-10.764z" fill="#a8e7ef"/></g></g><g><circle cx="312.739" cy="62.594" fill="#64b9fc" r="30.487"/><path d="m343.223 62.591c0 16.843-13.653 30.497-30.483 30.497-5.642 0-10.936-1.533-15.464-4.221 11.967-2.758 20.884-13.472 20.884-26.275 0-12.79-8.902-23.517-20.87-26.275 4.528-2.675 9.808-4.207 15.45-4.207 16.83-.002 30.483 13.651 30.483 30.481z" fill="#31a7fb"/></g></g></svg>