<svg xmlns="http://www.w3.org/2000/svg" height="406pt" version="1.1" viewBox="1 -64 406.6269 406" width="406pt">
<g id="surface1">
<path d="M 115.328125 203.894531 L 167.496094 167.871094 L 122.109375 122.484375 Z M 115.328125 203.894531 " style=" stroke:none;fill-rule:nonzero;fill:rgb(80.392157%,80.392157%,81.568627%);fill-opacity:1;" />
<path d="M 94.972656 95.351562 L 400.253906 7.15625 L 6.78125 7.15625 Z M 94.972656 95.351562 " style=" stroke:none;fill-rule:nonzero;fill:rgb(20%,54.117647%,95.294118%);fill-opacity:1;" />
<path d="M 115.328125 203.894531 L 122.109375 122.484375 L 400.253906 7.15625 L 94.972656 95.351562 Z M 115.328125 203.894531 " style=" stroke:none;fill-rule:nonzero;fill:rgb(80.392157%,80.392157%,81.568627%);fill-opacity:1;" />
<path d="M 167.496094 167.871094 L 271.359375 271.734375 L 400.253906 7.15625 L 122.109375 122.484375 Z M 167.496094 167.871094 " style=" stroke:none;fill-rule:nonzero;fill:rgb(20%,54.117647%,95.294118%);fill-opacity:1;" />
<path d="M 406.515625 9.652344 C 406.75 9.0625 406.898438 8.4375 406.957031 7.800781 C 406.980469 7.617188 406.996094 7.429688 407 7.238281 C 407.015625 6.480469 406.90625 5.722656 406.671875 5 L 406.671875 4.910156 C 406.640625 4.824219 406.570312 4.769531 406.542969 4.6875 C 406.40625 4.296875 406.230469 3.917969 406.023438 3.5625 C 405.867188 3.34375 405.695312 3.132812 405.511719 2.9375 C 405.414062 2.800781 405.304688 2.667969 405.1875 2.542969 C 404.675781 1.996094 404.074219 1.535156 403.410156 1.1875 C 403.351562 1.152344 403.289062 1.140625 403.234375 1.113281 C 402.605469 0.808594 401.933594 0.609375 401.238281 0.515625 C 401.070312 0.515625 400.914062 0.46875 400.746094 0.453125 C 400.574219 0.441406 400.417969 0.371094 400.253906 0.371094 L 6.78125 0.371094 C 3.035156 0.375 0 3.414062 0 7.160156 C 0 8.957031 0.714844 10.683594 1.984375 11.953125 L 88.691406 98.660156 L 108.65625 205.167969 C 109.261719 208.515625 112.277344 210.882812 115.671875 210.679688 C 116.917969 210.585938 118.113281 210.140625 119.117188 209.394531 L 119.179688 209.484375 L 166.667969 176.675781 L 266.527344 276.539062 C 267.808594 277.816406 269.546875 278.527344 271.359375 278.519531 C 271.734375 278.515625 272.109375 278.484375 272.476562 278.421875 C 274.640625 278.0625 276.496094 276.675781 277.457031 274.707031 L 406.355469 10.128906 L 406.394531 10 C 406.449219 9.871094 406.46875 9.769531 406.515625 9.652344 Z M 23.160156 13.941406 L 352.328125 13.941406 L 96.933594 87.71875 Z M 102.777344 100.160156 L 285.695312 47.3125 L 119.484375 116.21875 C 117.144531 117.179688 115.53125 119.367188 115.304688 121.886719 L 112.695312 153.238281 Z M 123.277344 190.15625 L 127.652344 137.621094 L 156.945312 166.914062 Z M 269.425781 260.203125 L 134.085938 124.859375 L 386.3125 20.277344 Z M 269.425781 260.203125 " style=" stroke:none;fill-rule:nonzero;fill:rgb(13.72549%,12.156863%,12.54902%);fill-opacity:1;" />
</g>
</svg>